#!OML:ASF F:\twosubjects\two\Thursday\Session 1\Rory.ASF
:FULLY-SPECIFIED
:DEGREES
437
root 18.743 16.8361 -18.2308 -181.851 -76.1545 188.503
lowerback 22.5511 2.1386 -5.10487
upperback 8.72561 0.739923 -2.29671
thorax -3.07968 -0.0388741 0.27433
lowerneck -0.362434 16.1374 9.51205
upperneck -11.7103 20.4449 -21.8026
head 0.0124896 10.5767 -7.47463
rclavicle 1.03368e-014 -2.46493e-014
rhumerus -32.6466 -6.56544 -78.9693
rradius 56.152
rwrist 10.0464
rhand -24.2157 25.272
rfingers 7.12502
rthumb 2.269 -4.69572
lclavicle 1.03368e-014 -2.46493e-014
lhumerus 0.616389 22.8196 68.9721
lradius 85.3559
lwrist -41.5566
lhand -25.7539 47.9562
lfingers 7.12502
lthumb 0.783448 77.9345
rfemur -44.3533 -10.6448 14.9901
rtibia 71.1498
rfoot -6.34359 -6.01284
rtoes -11.7557
lfemur -38.9391 1.50302 -17.3843
ltibia 54.7353
lfoot -17.9622 1.77619
ltoes 10.2936
438
root 18.7024 16.8518 -18.2652 -176.788 -76.2541 183.29
lowerback 22.5582 2.29796 -6.35225
upperback 8.66411 0.657264 -2.58141
thorax -3.1487 -0.0974458 0.692415
lowerneck -0.268721 16.0263 9.34303
upperneck -11.8532 20.2585 -21.9082
head -0.0756203 10.5013 -7.51911
rclavicle 1.35174e-014 2.8625e-014
rhumerus -32.6235 -6.62242 -79.1126
rradius 56.0883
rwrist 10.2441
rhand -23.2939 25.4106
rfingers 7.12502
rthumb 3.15929 -4.54577
lclavicle 1.35174e-014 2.8625e-014
lhumerus -0.537099 21.8836 69.0491
lradius 86.0389
lwrist -41.7178
lhand -26.1314 47.41
lfingers 7.12502
lthumb 0.418878 77.3893
rfemur -44.2298 -10.2111 13.3557
rtibia 70.4645
rfoot -7.93123 -8.08017
rtoes -10.0737
lfemur -38.4718 1.21491 -18.6709
ltibia 54.2782
lfoot -17.9518 1.97224
ltoes 9.67192
439
root 18.6646 16.8732 -18.3054 -175.745 -76.4923 182.542
lowerback 22.3249 2.18876 -6.60938
upperback 8.5067 0.500894 -2.58442
thorax -3.1945 -0.163995 0.874832
lowerneck -0.208081 16.0548 9.10451
upperneck -11.9203 20.2786 -21.8961
head -0.129258 10.5247 -7.49319
rclavicle -1.66979e-014 -7.95139e-016
rhumerus -32.5893 -6.60509 -79.31
rradius 55.9602
rwrist 10.6302
rhand -23.1587 26.0486
rfingers 7.12502
rthumb 3.28984 -3.90579
lclavicle -1.66979e-014 -7.95139e-016
lhumerus -1.80959 21.1757 69.1856
lradius 86.6953
lwrist -41.9332
lhand -26.261 46.3435
lfingers 7.12502
lthumb 0.293676 76.323
rfemur -44.2778 -9.60736 12.9666
rtibia 69.4885
rfoot -9.33668 -10.1371
rtoes -6.82925
lfemur -38.4443 1.16644 -18.7924
ltibia 53.7718
lfoot -17.8107 1.92918
ltoes 9.03121
440
root 18.6298 16.9022 -18.3432 -177.207 -76.8102 184.184
lowerback 22.2235 2.04886 -6.31727
upperback 8.3834 0.426568 -2.33473
thorax -3.27496 -0.183472 0.997613
lowerneck -0.0455039 16.0631 8.63794
upperneck -11.9555 20.2786 -21.7114
head -0.240269 10.5463 -7.40117
rclavicle 9.54166e-015 2.54444e-014
rhumerus -32.6125 -6.327 -79.3122
rradius 55.7941
rwrist 10.4704
rhand -23.8087 26.3043
rfingers 7.12502
rthumb 2.66212 -3.65882
lclavicle 9.54166e-015 2.54444e-014
lhumerus -3.06064 20.5469 69.6384
lradius 87.2512
lwrist -41.8663
lhand -26.2324 45.8041
lfingers 7.12502
lthumb 0.321265 75.7836
rfemur -43.9539 -8.91353 13.174
rtibia 68.1855
rfoot -10.3521 -11.8026
rtoes -5.32605
lfemur -38.217 0.977679 -18.2705
ltibia 53.231
lfoot -17.7115 1.9482
ltoes 8.72921
441
root 18.5913 16.9368 -18.3983 -174.518 -76.9467 181.368
lowerback 22.1254 2.58588 -6.86702
upperback 8.5307 0.971915 -2.71829
thorax -3.09567 0.0616362 0.762132
lowerneck -0.554053 15.669 9.88098
upperneck -11.6333 19.8053 -21.807
head 0.0121434 10.2291 -7.56879
rclavicle 2.38542e-015 3.65764e-014
rhumerus -32.7254 -7.65024 -79.6816
rradius 55.7477
rwrist 10.0352
rhand -24.117 26.5948
rfingers 7.12502
rthumb 2.36436 -3.37185
lclavicle 2.38542e-015 3.65764e-014
lhumerus -2.93899 18.3082 70.1601
lradius 87.4089
lwrist -41.6778
lhand -26.4584 45.7697
lfingers 7.12502
lthumb 0.103025 75.7494
rfemur -43.3574 -7.98808 12.1787
rtibia 66.5778
rfoot -11.1142 -12.8683
rtoes -5.69411
lfemur -37.661 0.596211 -18.7669
ltibia 52.6466
lfoot -17.6939 1.96943
ltoes 9.69867
442
root 18.5568 16.9683 -18.4221 -172.251 -77.2036 179.111
lowerback 22.0595 2.56217 -7.0007
upperback 8.51989 0.902554 -2.97815
thorax -3.06701 0.0277843 0.575762
lowerneck -0.610479 15.6476 10.3891
upperneck -11.4772 19.8054 -22.0298
head 0.148289 10.2098 -7.68316
rclavicle -3.10104e-014 -1.27222e-014
rhumerus -32.7054 -7.75545 -80.0428
rradius 55.6315
rwrist 9.70163
rhand -23.4387 26.4315
rfingers 7.12502
rthumb 3.01942 -3.52689
lclavicle -3.10104e-014 -1.27222e-014
lhumerus -3.87481 16.8428 70.3012
lradius 87.8699
lwrist -41.2155
lhand -26.7503 45.8256
lfingers 7.12502
lthumb -0.178941 75.8052
rfemur -42.7293 -7.20457 11.1911
rtibia 64.6402
rfoot -12.1694 -13.2098
rtoes -4.0906
lfemur -37.2817 0.0844297 -19.1896
ltibia 52.1089
lfoot -17.5883 1.92216
ltoes 11.2496
443
root 18.5233 17.0033 -18.4519 -173.473 -77.6234 180.415
lowerback 22.0941 2.43615 -6.47596
upperback 8.53385 0.858196 -2.89837
thorax -3.06473 0.0171429 0.376965
lowerneck -1.26601 15.6906 10.4336
upperneck -10.8977 19.9055 -21.9967
head 0.437197 10.2011 -7.57967
rclavicle -1.35174e-014 -1.59028e-014
rhumerus -32.4819 -7.82562 -80.2278
rradius 55.3413
rwrist 9.53583
rhand -22.501 26.1042
rfingers 7.12502
rthumb 3.92493 -3.83942
lclavicle -1.35174e-014 -1.59028e-014
lhumerus -5.0431 15.3593 70.4846
lradius 88.4265
lwrist -40.4283
lhand -26.671 46.0278
lfingers 7.12502
lthumb -0.102342 76.0075
rfemur -41.9604 -6.24877 11.0578
rtibia 62.4351
rfoot -13.3546 -13.0725
rtoes -1.85637
lfemur -36.9703 0.278815 -18.8618
ltibia 51.6057
lfoot -17.5212 1.64602
ltoes 9.65098
444
root 18.485 17.0405 -18.4886 -176.767 -78.1514 183.86
lowerback 22.0479 2.0576 -5.75671
upperback 8.4392 0.573439 -2.48877
thorax -3.13205 -0.0996513 0.481437
lowerneck -1.28651 15.7665 9.29543
upperneck -10.9008 19.9898 -21.4986
head 0.268162 10.2674 -7.28376
rclavicle 1.59028e-015 4.45278e-014
rhumerus -32.3698 -6.69465 -80.1928
rradius 55.0345
rwrist 9.29708
rhand -22.6824 26.3843
rfingers 7.12502
rthumb 3.74979 -3.5625
lclavicle 1.59028e-015 4.45278e-014
lhumerus -6.6205 14.9588 71.1021
lradius 88.8766
lwrist -40.2313
lhand -26.4343 45.9492
lfingers 7.12502
lthumb 0.126287 75.9289
rfemur -41.1026 -5.28856 11.4102
rtibia 60.0094
rfoot -13.2066 -12.6249
rtoes -5.5346
lfemur -36.6858 -0.0460918 -17.9583
ltibia 51.1557
lfoot -17.7499 2.13725
ltoes 5.68679
445
root 18.4441 17.073 -18.5342 -177.153 -78.5953 184.74
lowerback 21.5672 1.54013 -5.92423
upperback 8.28993 -0.0263418 -2.02701
thorax -3.01999 -0.385207 1.21776
lowerneck -0.908129 15.9972 7.34227
upperneck -11.6287 20.1683 -21.0276
head -0.247376 10.4564 -6.96517
rclavicle 1.27222e-014 1.59028e-014
rhumerus -32.0039 -4.62717 -80.1257
rradius 54.7131
rwrist 9.29448
rhand -23.2989 26.4016
rfingers 7.12502
rthumb 3.15445 -3.55479
lclavicle 1.27222e-014 1.59028e-014
lhumerus -8.28427 15.4687 72.0126
lradius 89.3187
lwrist -40.3689
lhand -26.3887 45.5319
lfingers 7.12502
lthumb 0.170354 75.5116
rfemur -40.7387 -4.28186 11.1563
rtibia 57.5521
rfoot -13.989 -11.6642
rtoes -3.96504
lfemur -36.8471 -0.733622 -17.5523
ltibia 50.7326
lfoot -17.7982 2.36392
ltoes 5.93429
446
root 18.4032 17.1023 -18.5753 -175.117 -78.9544 182.792
lowerback 21.3632 1.6282 -6.18353
upperback 8.23904 0.0581787 -2.08046
thorax -2.97524 -0.342826 1.28718
lowerneck -0.872461 15.7143 7.30016
upperneck -11.4106 19.8092 -20.9489
head -0.251644 10.2699 -6.96235
rclavicle 3.73715e-014 6.83819e-014
rhumerus -32.1919 -4.74186 -80.2217
rradius 54.5215
rwrist 9.71753
rhand -23.5662 26.0396
rfingers 7.12502
rthumb 2.89632 -3.92051
lclavicle 3.73715e-014 6.83819e-014
lhumerus -9.21213 13.8497 72.8284
lradius 89.5135
lwrist -40.1606
lhand -26.4812 45.3323
lfingers 7.12502
lthumb 0.0809389 75.3121
rfemur -40.0051 -3.28331 10.2644
rtibia 55.1227
rfoot -15.973 -10.1441
rtoes 3.04788
lfemur -36.5857 -1.37332 -17.7976
ltibia 50.3602
lfoot -17.8524 2.22189
ltoes 8.4079
